# AST/ASF file generated using VICON BodyLanguage
# -----------------------------------------------
:version 1.10
:name VICON
:units
  mass 1.0
  length 0.45
  angle deg
:documentation
   .ast/.asf automatically generated from VICON data using
   VICON BodyBuilder and BodyLanguage model FoxedUp or BRILLIANT.MOD
:root
   order TX TY TZ RX RY RZ
   axis XYZ
   position 0 0 0  
   orientation 0 0 0 
:bonedata
  begin
     id 1 
     name lhipjoint
     direction 0.528046 -0.759594 0.379717 
     length 2.39752 
     axis 0 0 0  XYZ
  end
  begin
     id 2 
     name lfemur
     direction 0.34202 -0.939693 0  
     length 7.31175  
     axis 0 0 20  XYZ
    dof rx ry rz
    limits (-160.0 20.0)
           (-70.0 70.0)
           (-60.0 70.0)
  end
  begin
     id 3 
     name ltibia
     direction 0.34202 -0.939693 0   
     length 7.52482   
     axis 0 0 20   XYZ
    dof rx
    limits (-10.0 170.0)
  end
  begin
     id 4 
     name lfoot
     direction 0.0675379 -0.185559 0.980309   
     length 2.00961   
     axis -90 7.62852e-016 20   XYZ
    dof rx rz
    limits (-45.0 90.0)
           (-70.0 20.0)
  end
  begin
     id 5 
     name ltoes
     direction 1.5352e-011 -4.22286e-011 1   
     length 1.01383   
     axis -90 7.62852e-016 20   XYZ
    dof rx
    limits (-90.0 20.0)
  end
  begin
     id 6 
     name rhipjoint
     direction -0.510274 -0.769251 0.384544   
     length 2.36742  
     axis 0 0 0  XYZ 
  end
  begin
     id 7 
     name rfemur
     direction -0.34202 -0.939693 0   
     length 7.45325   
     axis 0 0 -20   XYZ
    dof rx ry rz
    limits (-160.0 20.0)
           (-70.0 70.0)
           (-70.0 60.0)
  end
  begin
     id 8 
     name rtibia
     direction -0.34202 -0.939693 0   
     length 7.49587   
     axis 0 0 -20   XYZ
    dof rx
    limits (-10.0 170.0)
 end
 begin
     id 9 
     name rfoot
     direction -0.106475 -0.292536 0.950308   
     length 2.20898  
     axis -90 -7.62852e-016 -20   XYZ
    dof rx rz
    limits (-45.0 90.0)
           (-20.0 70.0)
  end
  begin
     id 10 
     name rtoes
     direction -1.53597e-011 -4.22023e-011 1   
     length 1.10065   
     axis -90 -7.62852e-016 -20   XYZ
    dof rx
    limits (-90.0 20.0)
  end
  begin
     id 11 
     name lowerback
     direction 0.0260024 0.998026 -0.0571652   
     length 2.11214   
     axis 0 0 0   XYZ
    dof rx ry rz
    limits (-20.0 45.0)
           (-30.0 30.0)
           (-30.0 30.0)
  end
  begin
     id 12 
     name upperback
     direction 0.0216202 0.999542 -0.0211766   
     length 2.11689   
     axis 0 0 0   XYZ
    dof rx ry rz
    limits (-20.0 45.0)
           (-30.0 30.0)
           (-30.0 30.0)
  end
  begin
     id 13 
     name thorax
     direction 0.00883312 0.999944 0.00589057   
     length 2.11821   
     axis 0 0 0   XYZ
    dof rx ry rz
    limits (-20.0 45.0)
           (-30.0 30.0)
           (-30.0 30.0)
  end
  begin
     id 14 
     name lowerneck
     direction -0.059386 0.994433 0.0870401   
     length 1.81176   
     axis 0 0 0   XYZ
    dof rx ry rz
    limits (-20.0 45.0)
           (-30.0 30.0)
           (-30.0 30.0)
  end
  begin
     id 15 
     name upperneck
     direction 0.0506457 0.97328 -0.223967   
     length 1.82382   
     axis 0 0 0   XYZ
    dof rx ry rz
    limits (-20.0 45.0)
           (-30.0 30.0)
           (-30.0 30.0)
  end
  begin
     id 16
     name head
     direction 0.0205902 0.996147 -0.0852487  
     length 1.84805  
     axis 0 0 0   XYZ
    dof rx ry rz
    limits (-20.0 45.0)
           (-30.0 30.0)
           (-30.0 30.0)
  end
  begin
     id 17 
     name lclavicle
     direction 0.949493 0.303881 -0.0782325  
     length 3.60584  
     axis 0 0 0   XYZ
    dof ry rz
    limits (-20.0 10.0)
           (0.0 20.0)
  end
  begin
     id 18 
     name lhumerus
     direction 1 -4.48965e-011 1.48782e-027   
     length 4.95681   
     axis 180 -30 -90   XYZ
    dof rx ry rz
    limits (-60.0 90.0)
           (-90.0 90.0)
           (-90.0 90.0)
  end
  begin
     id 19
     name lradius
     direction 1 -4.48952e-011 2.06528e-027   
     length 3.40915   
     axis 180 -30 -90   XYZ
    dof rx
    limits (-10.0 170.0)
  end
  begin
     id 20
     name lwrist
     direction 1 -4.48964e-011 1.28021e-027   
     length 1.70457   
     axis -1.61767e-015 90 90   XYZ
    dof ry
    limits (-180.0 0.0)
 end
  begin
     id 21 
     name lhand
     direction 1 -4.49094e-011 2.54887e-027   
     length 0.616403   
     axis -1.63363e-015 90 90   XYZ
    dof rx rz
    limits (-90.0 90.0)
           (-45.0 45.0)
  end
  begin
     id 22 
     name lfingers
     direction 1 -4.49002e-011 5.11407e-027   
     length 0.49696   
     axis -3.26723e-015 90 90   XYZ
    dof rx
    limits (0.0 90.0)
  end
  begin
     id 23
     name lthumb
     direction 0.707107 -6.34998e-011 0.707107   
     length 0.713539   
     axis -90 45 -2.25915e-014   XYZ
    dof rx rz
    limits (-45.0 45.0)
           (-45.0 45.0)
  end
  begin
     id 24 
     name rclavicle
     direction -0.937751 0.334612 -0.0930482   
     length 3.46287  
     axis 0 0 0   XYZ 
    dof ry rz
    limits (-10.0 20.0)
           (-20.0 0.0)
  end
  begin
     id 25 
     name rhumerus
     direction -1 -4.48962e-011 3.59972e-027  
     length 5.352   
     axis 180 30 90   XYZ
    dof rx ry rz
    limits (-90.0 60.0)
           (-90.0 90.0)
           (-90.0 90.0)
  end
  begin
     id 26 
     name rradius
     direction -1 -4.48987e-011 -3.76925e-027   
     length 3.43721   
     axis 180 30 90   XYZ
    dof rx
    limits (-10.0 170.0)
  end
  begin
     id 27 
     name rwrist
     direction -1 -4.48943e-011 1.28112e-027   
     length 1.7186   
     axis -1.61767e-015 -90 -90   XYZ
    dof ry
    limits (-180.0 0.0)
  end
  begin
     id 28
     name rhand
     direction -1 -4.49027e-011 2.55483e-027   
     length 0.72009   
     axis -1.63363e-015 -90 -90   XYZ
    dof rx rz
    limits (-90.0 90.0)
           (-45.0 45.0)
  end
  begin
     id 29
     name rfingers
     direction -1 -4.48827e-011 5.14506e-027   
     length 0.580555   
     axis -3.26723e-015 -90 -90   XYZ
    dof rx
    limits (0.0 90.0)
  end
  begin
     id 30
     name rthumb
     direction -0.707107 -6.34936e-011 0.707107   
     length 0.833564   
     axis -90 -45 2.25915e-014   XYZ
    dof rx rz
    limits (-45.0 45.0)
           (-45.0 45.0)
  end
:hierarchy
  begin
    root lhipjoint rhipjoint lowerback
    lhipjoint lfemur
    lfemur ltibia
    ltibia lfoot
    lfoot ltoes
    rhipjoint rfemur
    rfemur rtibia
    rtibia rfoot
    rfoot rtoes
    lowerback upperback
    upperback thorax
    thorax lowerneck lclavicle rclavicle
    lowerneck upperneck
    upperneck head
    lclavicle lhumerus
    lhumerus lradius
    lradius lwrist
    lwrist lhand lthumb
    lhand lfingers
    rclavicle rhumerus
    rhumerus rradius
    rradius rwrist
    rwrist rhand rthumb
    rhand rfingers
  end

#!OML:ASF H:\Terrain\Patient Classification 1\Terrain2\Thursday\justin.ASF
:FULLY-SPECIFIED
:DEGREES
268
root 20.2075 17.5027 -21.5305 169.623 85.7173 169.434
lowerback 2.25859 0.836964 -2.56942
upperback 4.09883 1.1847 0.208247
thorax 2.89328 0.547005 1.65786
lowerneck -14.3303 -3.03066 -5.97035
upperneck 42.3057 -0.510158 0.867881
head 18.3822 -0.324007 1.63536
rclavicle 1.95989e-014 -8.79622e-015
rhumerus -31.0763 -17.0008 -78.8821
rradius 34.6093
rwrist -13.0763
rhand -21.1897 13.5993
rfingers 7.12502
rthumb 5.19118 -16.3171
lclavicle 1.95989e-014 -8.79622e-015
lhumerus -32.0121 -0.0255076 79.2567
lradius 51.0816
lwrist 10.1488
lhand -19.1223 21.3428
lfingers 7.12502
lthumb 7.18712 51.2008
rfemur -31.1871 -8.23673 19.7666
rtibia 25.9864
rfoot -6.94665 -1.95043
rtoes 4.28327
lfemur 2.59038 6.23451 -23.8573
ltibia 14.7546
lfoot -9.62287 -16.0544
ltoes 24.6351
269
root 20.3135 17.5151 -21.5325 167.224 85.5106 166.933
lowerback 2.19631 0.831311 -2.80512
upperback 4.01501 1.17367 0.227605
thorax 2.83796 0.534624 1.80987
lowerneck -14.2503 -3.09745 -6.18301
upperneck 42.3464 -0.573428 0.964817
head 18.3942 -0.366329 1.70981
rclavicle -5.34234e-016 8.54774e-015
rhumerus -31.1015 -16.675 -78.8379
rradius 34.5493
rwrist -13.2634
rhand -21.1169 13.5962
rfingers 7.12502
rthumb 5.26143 -16.3185
lclavicle -5.34234e-016 8.54774e-015
lhumerus -31.7633 -0.648033 79.5132
lradius 50.0691
lwrist 10.4896
lhand -19.2191 20.7073
lfingers 7.12502
lthumb 7.09364 50.5685
rfemur -31.1725 -8.59524 19.7112
rtibia 24.2157
rfoot -7.01045 -1.68075
rtoes -0.366442
lfemur 3.25659 6.20573 -24.0452
ltibia 14.0031
lfoot -9.51615 -16.19
ltoes 24.0482
270
root 20.423 17.4972 -21.5263 163.402 85.1924 162.947
lowerback 2.06465 0.761909 -3.32365
upperback 3.91184 1.07904 0.226697
thorax 2.80324 0.47264 2.10038
lowerneck -14.0578 -3.09 -6.35346
upperneck 42.2574 -0.58469 1.10859
head 18.2912 -0.375309 1.80429
rclavicle 1.48592e-014 -5.96354e-016
rhumerus -31.2282 -16.2323 -78.8779
rradius 34.6224
rwrist -13.6025
rhand -20.8476 13.6643
rfingers 7.12502
rthumb 5.52146 -16.2437
lclavicle 1.48592e-014 -5.96354e-016
lhumerus -32.8328 -1.20675 79.755
lradius 51.5309
lwrist 10.9984
lhand -19.3942 21.0378
lfingers 7.12502
lthumb 6.92459 50.9046
rfemur -30.9802 -7.94261 18.9179
rtibia 22.4813
rfoot -7.29192 -2.12897
rtoes 2.53174
lfemur 3.73818 6.17879 -24.3897
ltibia 13.534
lfoot -9.36297 -16.3345
ltoes 24.0649
271
root 20.5302 17.4954 -21.5143 163.526 84.9083 162.901
lowerback 1.85498 0.694641 -3.50833
upperback 3.8731 0.992752 0.285022
thorax 2.8833 0.421256 2.26657
lowerneck -14.0556 -3.10451 -6.38313
upperneck 42.1786 -0.582974 1.04698
head 18.2438 -0.388324 1.77823
rclavicle -3.62782e-015 1.78906e-015
rhumerus -31.2665 -15.7376 -78.8979
rradius 34.7264
rwrist -13.75
rhand -20.6693 13.4588
rfingers 7.12502
rthumb 5.69361 -16.4447
lclavicle -3.62782e-015 1.78906e-015
lhumerus -33.0536 0.100122 79.719
lradius 51.8632
lwrist 9.89529
lhand -19.0121 20.8495
lfingers 7.12502
lthumb 7.29351 50.7038
rfemur -30.8153 -7.50755 18.6464
rtibia 20.8575
rfoot -7.48428 -2.84226
rtoes 2.45651
lfemur 4.07456 6.09821 -24.3542
ltibia 13.2567
lfoot -9.24516 -16.4731
ltoes 24.5774
272
root 20.6373 17.4961 -21.499 172.364 84.9126 171.722
lowerback 1.75421 0.647997 -2.99067
upperback 3.86818 0.922153 0.701772
thorax 2.93855 0.392451 2.40684
lowerneck -14.1444 -3.171 -6.50617
upperneck 42.1878 -0.527834 0.79463
head 18.2767 -0.421438 1.69165
rclavicle 2.45748e-014 -5.1684e-015
rhumerus -31.1641 -15.2557 -78.7059
rradius 34.6494
rwrist -13.6428
rhand -20.703 13.211
rfingers 7.12502
rthumb 5.66108 -16.6934
lclavicle 2.45748e-014 -5.1684e-015
lhumerus -32.8656 0.96954 79.933
lradius 51.2095
lwrist 9.27693
lhand -19.0027 20.3496
lfingers 7.12502
lthumb 7.30257 50.2036
rfemur -30.5613 -7.55839 19.7334
rtibia 19.4934
rfoot -7.8351 -3.52548
rtoes -3.08331
lfemur 4.49268 6.02518 -23.3373
ltibia 13.0666
lfoot -9.42395 -16.5743
ltoes 24.1148
273
root 20.7487 17.4829 -21.4827 180.179 84.9203 179.516
lowerback 1.64242 0.596156 -2.49467
upperback 3.82672 0.845188 1.05094
thorax 2.96351 0.362203 2.48902
lowerneck -14.1256 -3.1199 -6.69949
upperneck 42.2476 -0.33138 0.718726
head 18.3038 -0.381771 1.73024
rclavicle -2.38542e-015 -3.57812e-015
rhumerus -31.2041 -14.9149 -78.5925
rradius 34.6129
rwrist -13.4911
rhand -20.6325 13.0524
rfingers 7.12502
rthumb 5.72918 -16.8501
lclavicle -2.38542e-015 -3.57812e-015
lhumerus -32.5468 0.71252 80.1985
lradius 49.8638
lwrist 9.68128
lhand -19.526 19.6797
lfingers 7.12502
lthumb 6.79738 49.5506
rfemur -30.3507 -6.45643 20.1194
rtibia 18.6614
rfoot -8.82648 -4.90708
rtoes -1.21424
lfemur 5.08499 5.89946 -22.432
ltibia 12.6146
lfoot -9.48691 -16.5535
ltoes 23.5007
